# xmcd
#
# Track frame offsets:
#	182
#	19217
#	35630
#	48370
#	61602
#	81912
#	96872
#	109650
#	123157
#	140635
#	150182
#	159152
#	171200
#	185835
#	199222
#	227715
#	246542
#	274957
#	288547
#	301420
#
# Disc length: 4174 seconds
#
# Revision: 2
# Processed by: cddbd v1.5.2PL0 Copyright (c) Steve Scherf et al.
# Submitted via: audiograbber 1.83.01
#
DISCID=19104c14
DTITLE=Charles, Ray - Unchain My Heart, The Best Of
DYEAR=1988
DGENRE=Blues
TTITLE0=I Can´t Stop Loving You
TTITLE1=Georgia On My Mind
TTITLE2=Yesterday
TTITLE3=Take These Chains From My Heart
TTITLE4=What´D I Say
TTITLE5=Here We Go Again
TTITLE6=Unchain My Heart
TTITLE7=Eleanor Rigby
TTITLE8=Ruby
TTITLE9=Busted
TTITLE10=Hit The Road Jack
TTITLE11=Together Again
TTITLE12=Born To Lose
TTITLE13=Crying Time
TTITLE14=I Got A Woman
TTITLE15=Baby, It´s Cold Outside
TTITLE16=Makin´ Whoopee
TTITLE17=Let´s Go Get Stoned
TTITLE18=Makin´ Believe
TTITLE19=Don´t Set Me Free
EXTD=
EXTT0=
EXTT1=
EXTT2=
EXTT3=
EXTT4=
EXTT5=
EXTT6=
EXTT7=
EXTT8=
EXTT9=
EXTT10=
EXTT11=
EXTT12=
EXTT13=
EXTT14=
EXTT15=
EXTT16=
EXTT17=
EXTT18=
EXTT19=
PLAYORDER=
